<svg xmlns="http://www.w3.org/2000/svg" viewBox="0 0 160 96" width="160" height="96">
  <defs>
    <linearGradient id="bgB" x1="0%" y1="100%" x2="100%" y2="0%">
      <stop offset="0%" stop-color="#1a0518"/>
      <stop offset="45%" stop-color="#3e0d2e"/>
      <stop offset="100%" stop-color="#12081a"/>
    </linearGradient>
    <radialGradient id="coreB" cx="50%" cy="45%" r="55%">
      <stop offset="0%" stop-color="#ff6e40" stop-opacity="0.55"/>
      <stop offset="70%" stop-color="#d500f9" stop-opacity="0.15"/>
      <stop offset="100%" stop-color="#000" stop-opacity="0"/>
    </radialGradient>
  </defs>
  <rect width="160" height="96" rx="14" fill="url(#bgB)"/>
  <ellipse cx="80" cy="52" rx="44" ry="36" fill="url(#coreB)"/>
  <path d="M52 58 Q80 22 108 58 L98 72 Q80 48 62 72 Z" fill="#3e2723" stroke="#ffab40" stroke-width="1.6" opacity="0.92"/>
  <path d="M62 38 L68 30 L74 38 L80 28 L86 38 L92 30 L98 38 L94 48 L86 46 L80 54 L74 46 L66 48 Z" fill="none" stroke="#ffd54f" stroke-width="1.8" stroke-linejoin="round" opacity="0.95"/>
  <path d="M80 54 L80 78" stroke="#ff7043" stroke-width="2.2" stroke-linecap="round" opacity="0.75"/>
  <g stroke="#ea80fc" stroke-width="1" opacity="0.5">
    <path d="M24 30 L32 38"/><path d="M136 32 L128 40"/><path d="M30 70 L38 62"/><path d="M130 68 L122 60"/>
  </g>
</svg>
